<svg width="800" height="800" viewBox="0 0 16 16" fill="none" xmlns="http://www.w3.org/2000/svg"><path fill-rule="evenodd" clip-rule="evenodd" d="M4 0h2v2h4v2H8.868a8.476 8.476 0 01-2.202 4.351c.8.388 1.691.617 2.633.646L10.274 6h2.453l3.25 10h-2.104l-.65-2H9.776l-.65 2H7.024l1.638-5.04A8.447 8.447 0 015 9.711 8.46 8.46 0 01.5 11H0V9h.5a6.474 6.474 0 002.834-.649A8.514 8.514 0 011.752 6h2.27c.278.435.607.834.978 1.19A6.492 6.492 0 006.826 4H0V2h4V0zm8.573 12L11.5 8.697 10.427 12h2.146z" fill="#fff"/></svg>